<?xml version="1.0" standalone="no"?>
<!DOCTYPE svg PUBLIC "-//W3C//DTD SVG 20010904//EN"
 "http://www.w3.org/TR/2001/REC-SVG-20010904/DTD/svg10.dtd">
<svg version="1.0" xmlns="http://www.w3.org/2000/svg"
 width="1024.000000pt" height="1024.000000pt" viewBox="0 0 1024.000000 1024.000000"
 preserveAspectRatio="xMidYMid meet">
<metadata>
Created by potrace 1.16, written by Peter Selinger 2001-2019
</metadata>
<g transform="translate(0.000000,1024.000000) scale(0.100000,-0.100000)"
fill="#000000" stroke="none">
<path d="M3788 8187 c-118 -43 -216 -128 -259 -223 -10 -22 -23 -72 -29 -111
-28 -180 55 -340 218 -420 75 -37 78 -38 191 -38 128 1 192 19 264 73 55 41
124 139 148 210 29 87 24 204 -12 282 -39 84 -118 163 -203 205 -62 31 -85 37
-161 41 -78 4 -99 2 -157 -19z"/>
<path d="M2836 7968 c-8 -13 -22 -48 -31 -78 -62 -205 -88 -269 -136 -330 -27
-35 -49 -73 -49 -85 0 -28 28 -53 73 -66 46 -13 42 -24 -40 -112 -48 -51 -63
-75 -63 -97 0 -39 32 -60 92 -60 34 0 48 -4 48 -14 0 -14 -68 -112 -127 -180
-40 -48 -41 -68 -7 -95 22 -17 41 -21 109 -21 l82 0 7 -52 c3 -29 6 -77 6
-107 l0 -53 33 6 c17 3 51 8 75 12 l42 7 0 86 c0 47 4 92 9 100 6 10 21 11 57
7 40 -6 57 -3 94 16 25 13 46 30 48 39 1 8 -17 44 -41 80 -36 53 -97 160 -97
171 0 2 20 3 44 3 29 0 52 7 65 19 36 33 27 63 -42 135 -35 36 -72 81 -81 99
l-17 32 37 0 c42 0 91 26 100 53 3 11 -6 36 -25 65 -38 60 -83 158 -133 292
-21 57 -45 115 -54 127 -19 30 -59 30 -78 1z"/>
<path d="M4866 7849 c-98 -10 -142 -24 -161 -52 -21 -29 -19 -70 4 -91 17 -16
49 -17 422 -10 l404 7 27 28 c36 35 35 63 -1 100 l-29 29 -294 -1 c-161 -1
-328 -5 -372 -10z"/>
<path d="M6610 7801 c-170 -5 -210 -9 -232 -23 -30 -20 -42 -57 -28 -92 19
-51 33 -53 350 -60 162 -3 356 -13 430 -22 74 -8 179 -17 233 -21 93 -6 99 -5
122 17 32 30 32 69 1 103 -26 28 -69 42 -161 53 -33 3 -76 13 -95 21 -19 8
-78 18 -130 23 -100 10 -156 10 -490 1z"/>
<path d="M5940 7435 c-86 -16 -195 -54 -448 -156 -97 -40 -202 -80 -232 -90
-30 -9 -127 -43 -215 -74 -88 -31 -241 -81 -340 -111 -99 -31 -229 -71 -290
-90 -60 -19 -186 -57 -280 -84 -93 -28 -213 -64 -265 -80 -52 -16 -268 -80
-480 -144 -655 -195 -738 -230 -928 -381 -135 -108 -218 -235 -264 -400 -22
-78 -22 -95 -26 -752 -2 -370 -7 -673 -11 -673 -5 0 -28 -18 -53 -39 -61 -54
-72 -91 -66 -237 3 -102 7 -125 28 -161 27 -49 82 -91 137 -104 21 -5 238 -9
482 -8 l444 0 28 -52 c57 -103 136 -185 224 -232 l60 -32 -185 -6 c-102 -4
-382 -7 -622 -8 l-436 -1 -33 -27 c-67 -57 -70 -129 -6 -191 l33 -32 2901 2
2902 3 28 21 c36 26 63 79 63 122 0 25 -9 43 -34 68 l-34 34 -483 1 c-573 2
-777 9 -739 26 86 40 205 163 262 269 l22 42 391 -5 c386 -5 391 -5 437 17 47
22 81 57 112 119 26 50 28 273 4 318 -25 45 -83 86 -132 92 l-41 6 -1 310 c-1
349 1 340 -77 412 -50 46 -133 91 -217 118 -47 16 -107 19 -422 23 l-366 4
-49 60 c-26 34 -83 106 -126 162 -43 56 -118 148 -166 206 -49 58 -107 128
-130 157 -22 28 -45 54 -51 58 -28 17 1 23 128 27 151 4 181 13 284 82 156
105 299 299 352 475 20 69 21 216 1 313 -41 201 -194 390 -400 497 -65 33
-236 95 -325 117 -86 21 -263 26 -350 9z m365 -195 c163 -42 335 -147 417
-255 52 -68 96 -178 109 -269 34 -251 -110 -490 -345 -570 -59 -20 -87 -21
-754 -26 l-694 -5 -18 -22 c-15 -19 -18 -53 -25 -245 -4 -123 -6 -351 -4 -508
l4 -285 -900 -1 c-495 0 -974 -2 -1065 -4 -91 -3 -279 -3 -417 -2 l-253 2 0
328 c0 292 2 337 19 404 39 152 120 266 249 352 60 39 343 166 372 166 6 0 66
18 133 39 67 22 142 45 167 51 41 10 153 44 385 115 44 14 134 40 200 59 190
54 292 85 405 121 58 18 175 54 260 80 453 136 796 257 1190 420 185 77 226
86 365 80 73 -3 151 -12 200 -25z m-218 -1387 c21 -26 73 -85 117 -130 86 -89
345 -420 346 -440 0 -9 -16 -13 -49 -13 -46 0 -52 3 -98 53 -53 58 -227 271
-283 346 -135 181 -157 231 -100 231 23 0 37 -10 67 -47z m-219 -176 c6 -5 65
-70 129 -145 64 -75 136 -158 160 -184 75 -82 90 -78 -306 -78 -326 0 -350 1
-372 19 -21 17 -24 29 -30 157 -8 152 -1 185 43 220 22 17 42 19 194 19 93 0
175 -4 182 -8z m1729 -883 c12 -18 18 -54 21 -116 5 -102 2 -108 -64 -108 -69
0 -124 60 -124 136 0 30 7 44 40 76 51 48 100 53 127 12z m-5230 -31 c-3 -10
-5 -2 -5 17 0 19 2 27 5 18 2 -10 2 -26 0 -35z m853 -281 l135 -3 -30 -21
c-116 -83 -216 -242 -240 -380 l-6 -38 -359 0 -360 0 0 223 0 222 363 0 c199
0 423 -1 497 -3z m1780 -194 c0 -112 3 -213 6 -225 l6 -23 -411 0 -411 0 0 38
c0 117 -109 293 -233 375 l-38 26 28 4 c15 2 259 5 541 6 l512 1 0 -202z
m1712 50 c109 -50 168 -126 194 -249 14 -66 14 -80 -1 -144 -25 -114 -87 -188
-205 -243 -45 -22 -70 -26 -140 -26 -74 -1 -92 3 -138 27 -136 71 -212 197
-212 351 0 80 13 124 49 163 16 18 32 42 36 53 7 23 63 54 145 82 77 26 198
19 272 -14z m-2914 -12 c66 -33 138 -98 162 -146 26 -51 44 -152 37 -215 -7
-68 -52 -151 -109 -199 -53 -46 -174 -96 -230 -96 -184 0 -351 160 -365 350
-5 60 -2 73 30 140 41 87 82 130 152 160 76 32 113 39 195 36 58 -2 87 -9 128
-30z m4050 -177 c2 -71 0 -88 -14 -100 -13 -11 -62 -15 -205 -17 l-188 -4 -17
27 c-27 41 -30 115 -6 145 25 31 82 38 287 36 l140 -1 3 -86z m-2718 -299
l925 -1 35 -61 c56 -98 138 -189 197 -218 29 -14 52 -28 52 -31 1 -4 -13 -9
-30 -13 -40 -8 -1908 -6 -2209 3 l-225 6 52 33 c71 45 185 174 213 240 20 45
26 53 44 48 12 -3 437 -6 946 -6z"/>
<path d="M5373 6900 c-64 -28 -127 -97 -149 -161 -27 -81 -25 -209 5 -276 25
-56 108 -143 138 -144 10 0 208 0 439 0 468 -1 448 -4 515 68 54 57 72 98 77
183 5 84 -16 188 -47 230 -35 48 -111 97 -169 109 -35 7 -186 11 -411 10 -326
0 -360 -2 -398 -19z m337 -281 l0 -132 -77 7 c-42 3 -108 6 -147 6 -68 0 -72
1 -89 29 -11 19 -17 51 -17 94 0 63 1 67 37 96 l38 31 127 0 128 0 0 -131z
m474 90 c23 -27 26 -40 26 -104 0 -115 -2 -116 -185 -113 l-150 3 -3 123 -3
122 145 0 144 0 26 -31z"/>
<path d="M3260 6080 c-90 -5 -113 -10 -159 -35 -73 -40 -125 -102 -153 -183
-20 -57 -23 -87 -23 -207 0 -128 2 -144 25 -190 36 -74 114 -148 180 -170 51
-18 97 -19 620 -20 558 0 566 0 612 22 66 30 129 92 164 160 28 57 29 62 29
208 0 149 0 151 -32 216 -21 42 -54 86 -91 121 -93 89 -87 88 -616 86 -248 0
-498 -4 -556 -8z m384 -186 c3 -9 6 -111 6 -228 l0 -213 -142 -6 c-79 -3 -182
-2 -230 1 -87 7 -88 8 -130 50 l-43 42 -3 128 c-3 120 -2 129 20 162 45 66 91
77 344 79 148 1 173 -1 178 -15z m643 -13 c22 -16 51 -46 64 -68 22 -35 24
-47 22 -161 -2 -119 -3 -124 -30 -157 -15 -19 -39 -38 -53 -42 -23 -7 -459 -8
-465 -1 -1 2 -6 105 -10 231 l-7 227 219 0 220 0 40 -29z"/>
<path d="M3975 5765 c-39 -38 -32 -66 31 -137 88 -100 124 -110 180 -54 48 48
44 68 -21 117 -30 23 -55 44 -55 48 0 12 -67 51 -89 51 -12 0 -33 -11 -46 -25z"/>
<path d="M2666 4349 c-41 -36 -54 -84 -34 -125 16 -36 73 -74 107 -74 68 1
117 102 81 169 -14 28 -68 61 -97 61 -12 0 -38 -14 -57 -31z"/>
<path d="M4383 4348 c-47 -53 -55 -100 -23 -141 63 -80 175 -39 175 66 0 78
-103 128 -152 75z"/>
<path d="M4687 4359 c-24 -14 -47 -62 -47 -98 0 -36 40 -86 75 -95 61 -16 136
58 121 119 -11 44 -59 85 -98 85 -18 0 -41 -5 -51 -11z"/>
<path d="M6479 4220 c-70 -37 -129 -130 -129 -203 0 -28 10 -63 28 -98 24 -47
35 -58 92 -87 71 -37 119 -39 179 -7 51 26 107 94 126 153 21 69 9 122 -43
183 -65 76 -174 101 -253 59z m139 -136 c51 -35 45 -102 -13 -140 -28 -18 -53
-13 -95 23 -41 34 -40 73 1 107 35 30 74 33 107 10z"/>
<path d="M3561 4218 c-25 -13 -62 -44 -84 -70 -34 -41 -40 -55 -44 -110 -4
-52 -1 -72 15 -105 38 -73 130 -132 208 -133 92 0 204 130 204 237 0 104 -86
188 -204 200 -40 3 -60 0 -95 -19z m146 -140 c29 -27 32 -87 6 -110 -51 -44
-86 -43 -125 6 -60 74 49 170 119 104z"/>
<path d="M2322 7333 c-32 -27 -71 -143 -65 -190 4 -31 -1 -48 -28 -91 -30 -49
-31 -53 -15 -70 15 -18 15 -21 -6 -48 -12 -16 -36 -45 -53 -64 -18 -19 -35
-43 -38 -53 -9 -25 24 -54 72 -62 55 -9 53 -26 -9 -110 -81 -110 -93 -131 -81
-153 14 -27 51 -39 161 -52 l95 -12 118 47 c85 34 117 51 113 61 -3 8 -23 40
-44 72 -37 54 -82 135 -82 147 0 3 12 5 26 5 30 0 64 16 64 31 0 6 -20 34 -44
62 -58 70 -64 90 -30 114 l26 19 -31 61 c-16 34 -35 92 -41 129 -11 67 -54
164 -76 171 -6 2 -20 -4 -32 -14z"/>
<path d="M3373 7328 c-6 -7 -21 -44 -33 -83 -12 -38 -37 -108 -55 -155 -20
-52 -31 -96 -28 -115 3 -21 -8 -55 -37 -114 -22 -46 -39 -90 -36 -98 7 -18 26
-17 146 13 58 14 143 32 189 40 46 7 86 16 89 19 3 3 -9 33 -26 68 -18 34 -48
124 -68 202 -42 171 -69 229 -105 233 -14 2 -31 -3 -36 -10z"/>
<path d="M7621 7106 c-16 -7 -37 -38 -63 -95 -21 -46 -64 -124 -95 -173 -54
-85 -55 -89 -38 -108 10 -11 26 -22 36 -25 34 -11 20 -41 -62 -136 -44 -52
-85 -104 -91 -116 -26 -53 23 -107 93 -105 32 2 39 -2 39 -16 0 -22 -66 -119
-120 -177 -77 -83 -86 -115 -47 -161 21 -25 29 -27 86 -25 l62 2 -16 -37 c-15
-36 -46 -81 -137 -202 -26 -35 -48 -69 -48 -77 0 -8 11 -26 23 -41 l24 -27
151 9 152 9 0 -95 c0 -52 4 -100 8 -106 4 -7 36 -15 71 -19 49 -6 65 -4 72 6
5 8 9 57 9 109 l0 95 153 0 152 0 16 33 c9 18 15 41 12 50 -2 10 -29 49 -60
87 -31 39 -74 97 -94 130 l-39 60 63 7 c49 6 67 13 85 33 39 45 30 74 -51 164
-41 45 -86 104 -101 131 l-27 50 49 0 c37 0 53 5 69 23 39 41 34 72 -20 133
-41 47 -137 178 -137 187 0 3 16 14 35 26 48 28 45 51 -15 141 -28 41 -64 109
-81 150 -45 107 -68 129 -118 106z"/>
<path d="M6796 5749 c-36 -28 -36 -86 0 -120 23 -21 35 -24 109 -24 74 0 86 3
109 24 33 31 35 87 6 119 -18 19 -31 22 -109 22 -74 0 -93 -3 -115 -21z"/>
<path d="M2144 3103 c-34 -32 -31 -68 11 -110 l35 -35 2915 4 2915 3 31 31
c37 37 41 76 12 105 -19 20 -57 20 -2958 22 l-2937 2 -24 -22z"/>
<path d="M5072 2820 l-2904 -5 -24 -28 c-13 -15 -24 -38 -24 -51 0 -29 40 -73
73 -81 13 -4 1330 -5 2927 -3 l2902 3 29 33 c39 44 39 82 -2 116 -17 14 -40
25 -52 24 -12 -2 -1329 -5 -2925 -8z"/>
<path d="M7980 2517 c-3 -3 -1309 -7 -2902 -10 -2060 -4 -2903 -9 -2917 -17
-33 -17 -44 -46 -29 -77 20 -41 62 -67 110 -67 24 0 1332 0 2907 2 l2863 2 34
34 c40 40 43 65 12 100 -21 24 -68 43 -78 33z"/>
</g>
</svg>
